# xmcd CD database file
#
# Track frame offsets:
#	150
#	19820
#	31290
#	44010
#	66902
#	87870
#	107770
#	127767
#	150922
#	164870
#	185137
#	203150
#	217590
#
# Disc length: 3079 seconds
#
# Revision: 0
# Processed by: cddbd v1.4PL0 Copyright (c) Steve Scherf et al.
# Submitted via: CDex 1.50
#
DISCID=ad0c050d
DTITLE=Jimmie Lee Robinson - All My Life
DYEAR=2001
DGENRE=Blues
TTITLE0=Forty Day And Forty Nights
TTITLE1=I'll Be Around
TTITLE2=Love My Baby
TTITLE3=Driftin' Blues
TTITLE4=The Girl I Love
TTITLE5=All My Life
TTITLE6=I'm Ready
TTITLE7=Too Late
TTITLE8=The Sun Is Shinning
TTITLE9=Easy Baby
TTITLE10=If I Get Lucky
TTITLE11=Ludella
TTITLE12=What A Wonderful World
EXTD=YEAR: 2001
EXTT0=
EXTT1=
EXTT2=
EXTT3=
EXTT4=
EXTT5=
EXTT6=
EXTT7=
EXTT8=
EXTT9=
EXTT10=
EXTT11=
EXTT12=
PLAYORDER=
